<svg xmlns="http://www.w3.org/2000/svg" version="1.1" xmlns:xlink="http://www.w3.org/1999/xlink" xmlns:svgjs="http://svgjs.dev/svgjs" width="128" height="128" viewBox="0 0 128 128"><g transform="matrix(0.6242424242424243,0,0,0.6242424242424243,24.24180532058334,10.973375549912078)"><svg viewBox="0 0 76 98" data-background-color="#ffffff" preserveAspectRatio="xMidYMid meet" height="165" width="128" xmlns="http://www.w3.org/2000/svg" xmlns:xlink="http://www.w3.org/1999/xlink"><g id="tight-bounds" transform="matrix(1,0,0,1,-0.18387733010581542,1.4525164670739485)"><svg viewBox="0 0 76.36775466021163 95.481" height="95.481" width="76.36775466021163"><g><svg viewBox="0 0 76.36775466021163 95.481" height="95.481" width="76.36775466021163"><g><svg viewBox="0 0 76.36775466021163 95.481" height="95.481" width="76.36775466021163"><g id="textblocktransform"><svg viewBox="0 0 76.36775466021163 95.481" height="95.481" width="76.36775466021163" id="textblock"><g><svg viewBox="0 0 76.36775466021163 95.481" height="95.481" width="76.36775466021163"><g><svg viewBox="0 0 76.36775466021163 95.481" height="95.481" width="76.36775466021163"><g><svg xmlns="http://www.w3.org/2000/svg" xmlns:xlink="http://www.w3.org/1999/xlink" version="1.1" x="0" y="0" viewBox="0 0.0005736863287100612 24.002 30.009196580373164" style="enable-background:new 0 0 24 30.296;" xml:space="preserve" id="icon-0" width="76.36775466021163" height="95.481" class="icon-icon-0" data-fill-palette-color="accent"><g fill="#ffa670" data-fill-palette-color="accent"><g fill="#ffa670" data-fill-palette-color="accent"><path d="M15.945 11.208L20.804 1.571A1.08 1.08 0 0 0 20.325 0.118 1.076 1.076 0 0 0 18.873 0.597L14.019 10.228C14.375 10.306 14.724 10.419 15.049 10.585 15.385 10.753 15.677 10.972 15.945 11.208" fill="#ffa670" data-fill-palette-color="accent"></path><path d="M14.73 19.32L8.214 16.037A16.8 16.8 0 0 1 2.972 20.324L0.456 21.637C0.435 21.649 0.423 21.672 0.401 21.688 0.364 21.715 0.336 21.747 0.305 21.78 0.283 21.807 0.256 21.831 0.239 21.864 0.235 21.87 0.141 21.876 0.139 21.882 0.105 21.949 0 22.027 0 22.109V22.113C0 22.691 0.811 23.582 2.048 24.566L4.641 21.83 2.876 25.127A27.5 27.5 0 0 0 5.889 26.977L9.094 21.897 7.293 27.682C8.316 28.166 9.3 28.571 10.206 28.883L12.011 23.897 11.165 29.19C12.156 29.475 13.018 29.637 13.648 29.637 14.238 29.637 14.638 29.502 14.781 29.221 14.786 29.213 14.785 29.203 14.788 29.196 14.803 29.167 14.805 29.135 14.812 29.104A0.5 0.5 0 0 0 14.83 28.956C14.83 28.933 14.843 28.913 14.839 28.89L14.4 26.085A16.9 16.9 0 0 1 14.73 19.32" fill="#ffa670" data-fill-palette-color="accent"></path><path d="M14.563 11.55A3.26 3.26 0 0 0 12.084 11.364 3.25 3.25 0 0 0 10.203 12.985 17 17 0 0 1 8.889 15.163L15.035 18.261C15.298 17.458 15.618 16.671 16.002 15.911A3.25 3.25 0 0 0 14.563 11.55" fill="#ffa670" data-fill-palette-color="accent"></path><circle cx="18.002" cy="29.296" r="1.0" fill="#ffa670" data-fill-palette-color="accent"></circle><circle cx="20.002" cy="26.296" r="1.0" fill="#ffa670" data-fill-palette-color="accent"></circle><circle cx="23.002" cy="29.296" r="1.0" fill="#ffa670" data-fill-palette-color="accent"></circle></g></g></svg></g></svg></g></svg></g></svg></g></svg></g></svg></g><defs></defs></svg><rect width="76.36775466021163" height="95.481" fill="none" stroke="none" visibility="hidden"></rect></g></svg></g></svg>