<svg xmlns="http://www.w3.org/2000/svg" version="1.1" xmlns:xlink="http://www.w3.org/1999/xlink" xmlns:svgjs="http://svgjs.dev/svgjs" width="2000" height="444" viewBox="0 0 2000 444"><g transform="matrix(1,0,0,1,1.3452162122831623,-5.229641943844911)"><svg viewBox="0 0 288 64" data-background-color="#ffffff" preserveAspectRatio="xMidYMid meet" height="444" width="2000" xmlns="http://www.w3.org/2000/svg" xmlns:xlink="http://www.w3.org/1999/xlink"><g id="tight-bounds" transform="matrix(1,0,0,1,-0.19334072556213755,0.753822262175845)"><svg viewBox="0 0 288.38705186013084 62.74604000000001" height="62.74604000000001" width="288.38705186013084"><g><svg viewBox="0 0 288.38705186013084 62.74604000000001" height="62.74604000000001" width="288.38705186013084"><g><svg viewBox="0 0 288.38705186013084 62.74604000000001" height="62.74604000000001" width="288.38705186013084"><g id="textblocktransform"><svg viewBox="0 0 288.38705186013084 62.74604000000001" height="62.74604000000001" width="288.38705186013084" id="textblock"><g><svg viewBox="0 0 288.38705186013084 62.74604000000001" height="62.74604000000001" width="288.38705186013084"><g><svg><g></g><g></g></svg></g><g><svg><g><svg></svg></g><g></g></svg></g><g id="text-0"><svg viewBox="0 0 288.38705186013084 62.74604000000001" height="62.74604000000001" width="288.38705186013084"><g transform="matrix(1,0,0,1,0,12.87746446563721)"><svg width="98.6725922393799" viewBox="-0.08296294814800001 -36.461363635498 98.66624616894799 36.994696968830006" height="36.99111106872559" data-palette-color="#2d4f8f"><path d="M18.45-11.6L18.45-11.6Q16.3-11.8 14.03-12.18 11.75-12.55 9.75-13.1L9.75-13.1Q9.65-13.15 9.3-13.25 8.95-13.35 8.95-13.45L8.95-13.45Q8.95-13.6 9.3-13.65 9.65-13.7 9.75-13.7L9.75-13.7Q10.75-13.8 12.3-13.83 13.85-13.85 14.85-13.7L14.85-13.7Q15.8-13.55 17.07-13.45 18.35-13.35 19.65-13.4 20.95-13.45 22.18-13.65 23.4-13.85 24.3-14.25L24.3-14.25Q24.7-14.4 25.2-14.85 25.7-15.3 25.95-15.75L25.95-15.75Q24.35-14.7 22.4-14.45 20.45-14.2 18.32-14.35 16.2-14.5 14.03-14.8 11.85-15.1 9.75-15.2L9.75-15.2Q8.4-15.25 6.98-15.1 5.55-14.95 4.23-14.5 2.9-14.05 1.8-13.3 0.7-12.55 0-11.45L0-11.45Q-0.1-11.2-0.08-11.38-0.05-11.55-0.05-11.65L-0.05-11.65Q0.35-13.65 1.83-14.68 3.3-15.7 5.05-16.25L5.05-16.25Q5.7-18.95 6.55-21.6 7.4-24.25 8.13-26.75 8.85-29.25 9.33-31.6 9.8-33.95 9.75-36.15L9.75-36.15Q9.8-36.25 9.78-36.35 9.75-36.45 9.85-36.45L9.85-36.45Q9.95-36.5 9.98-36.33 10-36.15 10-36.1L10-36.1Q10.65-33.9 10.5-31.53 10.35-29.15 9.78-26.7 9.2-24.25 8.38-21.73 7.55-19.2 6.85-16.65L6.85-16.65 8.15-16.8Q8.4-17.95 8.68-19.15 8.95-20.35 9.25-21.25L9.25-21.25Q9.35-21.55 9.58-22.48 9.8-23.4 10.05-24.7 10.3-26 10.58-27.5 10.85-29 11.03-30.4 11.2-31.8 11.23-32.95 11.25-34.1 11.1-34.75L11.1-34.75Q11.1-35.2 11.15-35.2L11.15-35.2Q11.25-35.2 11.35-35.08 11.45-34.95 11.5-34.85L11.5-34.85Q12.05-34 12.33-32.8 12.6-31.6 12.68-30.28 12.75-28.95 12.63-27.65 12.5-26.35 12.25-25.4L12.25-25.4Q11.65-23.3 10.95-21.1 10.25-18.9 9.45-16.8L9.45-16.8 10.3-16.8 10.55-16.8Q10.75-17.65 11.05-18.5 11.35-19.35 11.6-20.2L11.6-20.2Q12.25-22.55 12.9-25.03 13.55-27.5 13.65-30.35L13.65-30.35Q13.65-30.6 13.7-30.6L13.7-30.6Q13.8-30.6 13.83-30.5 13.85-30.4 13.9-30.3L13.9-30.3Q14.35-29.2 14.33-27.5 14.3-25.8 14-23.93 13.7-22.05 13.23-20.13 12.75-18.2 12.35-16.65L12.35-16.65Q14.2-16.5 15.93-16.25 17.65-16 19.4-15.8L19.4-15.8Q20.05-18.5 20.88-21.13 21.7-23.75 22.43-26.23 23.15-28.7 23.63-31.05 24.1-33.4 24.05-35.55L24.05-35.55Q24.05-35.8 24.15-35.8L24.15-35.8Q24.25-35.8 24.3-35.7 24.35-35.6 24.35-35.55L24.35-35.55Q25-33.3 24.83-30.88 24.65-28.45 24.05-25.95 23.45-23.45 22.6-20.88 21.75-18.3 21.05-15.7L21.05-15.7Q21.35-15.6 21.68-15.65 22-15.7 22.35-15.7L22.35-15.7Q22.55-16.95 22.9-18.28 23.25-19.6 23.55-20.55L23.55-20.55Q23.65-20.85 23.88-21.78 24.1-22.7 24.35-24 24.6-25.3 24.88-26.8 25.15-28.3 25.33-29.73 25.5-31.15 25.53-32.3 25.55-33.45 25.4-34.1L25.4-34.1Q25.3-34.45 25.45-34.5L25.45-34.5Q25.55-34.55 25.65-34.43 25.75-34.3 25.8-34.2L25.8-34.2Q26.35-33.35 26.65-32.15 26.95-30.95 27.03-29.65 27.1-28.35 26.98-27.05 26.85-25.75 26.6-24.8L26.6-24.8Q26-22.55 25.2-20.25 24.4-17.95 23.55-15.7L23.55-15.7 24.8-15.9Q25.05-16.75 25.35-17.68 25.65-18.6 25.9-19.5L25.9-19.5Q26.6-21.9 27.23-24.38 27.85-26.85 27.95-29.65L27.95-29.65Q27.95-29.9 27.95-29.93 27.95-29.95 28-29.95L28-29.95Q28.1-29.95 28.2-29.65L28.2-29.65Q28.8-28.3 28.65-26.15 28.5-24 28.05-21.68 27.6-19.35 27-17.18 26.4-15 26.1-13.7L26.1-13.7Q25.55-11.3 24.7-8.75 23.85-6.2 23.2-4.3L23.2-4.3Q23.05-3.7 22.8-3.7L22.8-3.7Q22.7-3.75 22.73-4 22.75-4.25 22.75-4.5L22.75-4.5Q22.85-6.65 23.18-8.78 23.5-10.9 24.05-13.15L24.05-13.15Q22.8-12.3 21.2-11.9 19.6-11.5 18.45-11.6ZM8.45-5.15L8.45-5.15Q8.55-7.55 8.9-9.85L8.9-9.85Q8.05-9.95 7.23-10.08 6.4-10.2 5.6-10.35L5.6-10.35Q5.4-7.65 5.75-5.03 6.1-2.4 7.25-0.2L7.25-0.2Q7.35 0 7.35 0L7.35 0Q7.35 0.25 7.05 0L7.05 0Q5.05-2.2 4.48-4.93 3.9-7.65 4.1-10.55L4.1-10.55 3-10.75Q2.75-10.75 2.58-10.85 2.4-10.95 2.4-11.05L2.4-11.05Q2.4-11.15 2.6-11.2 2.8-11.25 2.95-11.3L2.95-11.3Q5.8-11.9 8.65-11.75 11.5-11.6 14.45-11.25L14.45-11.25Q16.3-11.05 18.2-10.9 20.1-10.75 22.2-11.25L22.2-11.25Q22.4-11.3 22.45-11.2L22.45-11.2Q22.45-11.15 22.25-10.95L22.25-10.95Q21.4-10.15 19.95-9.85L19.95-9.85Q19.7-7.15 20-4.53 20.3-1.9 21.5 0L21.5 0Q21.65 0.15 21.5 0.15L21.5 0.15Q21.45 0.15 21.4 0.1 21.35 0.05 21.25 0L21.25 0Q20.3-0.8 19.73-1.88 19.15-2.95 18.85-4.2 18.55-5.45 18.48-6.83 18.4-8.2 18.45-9.6L18.45-9.6Q17.4-9.5 16.3-9.5 15.2-9.5 14.15-9.55 13.1-9.6 12.15-9.68 11.2-9.75 10.5-9.8L10.5-9.8Q10.1-8.45 9.65-7.23 9.2-6 8.9-5L8.9-5Q8.8-4.75 8.7-4.53 8.6-4.3 8.5-4.4L8.5-4.4Q8.4-4.4 8.43-4.65 8.45-4.9 8.45-5.15ZM22.1-2.9L22.1-2.9Q22.35-1.95 22.55-1.2 22.75-0.45 23.1 0L23.1 0Q23.15 0.05 23.2 0.13 23.25 0.2 23.15 0.25L23.15 0.25Q22.95 0.25 22.6 0L22.6 0Q22.05-0.4 21.63-0.9 21.2-1.4 20.95-2.9L20.95-2.9Q20.85-3.5 20.85-4.35 20.85-5.2 20.9-5.98 20.95-6.75 21.08-7.3 21.2-7.85 21.35-7.8L21.35-7.8Q21.45-7.8 21.5-7.55 21.55-7.3 21.6-7 21.65-6.7 21.68-6.4 21.7-6.1 21.7-5.95L21.7-5.95Q21.8-5.1 21.88-4.35 21.95-3.6 22.1-2.9ZM7.8-3.55L7.8-3.55Q8.1-1.75 8.75-0.2L8.75-0.2Q8.85 0.15 8.8 0.15L8.8 0.15Q8.55 0.15 8.25-0.15L8.25-0.15Q7.6-0.9 7.28-1.5 6.95-2.1 6.7-3.55L6.7-3.55Q6.6-4.1 6.58-4.95 6.55-5.8 6.6-6.6 6.65-7.4 6.78-7.95 6.9-8.5 7.05-8.5L7.05-8.5Q7.1-8.5 7.18-8.25 7.25-8 7.3-7.68 7.35-7.35 7.4-7.03 7.45-6.7 7.45-6.6L7.45-6.6Q7.55-5.75 7.63-5 7.7-4.25 7.8-3.55ZM1.7-11.6L1.7-11.6Q1.05-11.25 0.8-11 0.55-10.75 0.2-10.35L0.2-10.35Q0-10.1 0-10.2 0-10.3 0-10.45L0-10.45Q0.2-11.2 0.5-11.65 0.8-12.1 1.5-12.65L1.5-12.65Q1.85-12.95 2.48-13.15 3.1-13.35 3.7-13.43 4.3-13.5 4.75-13.48 5.2-13.45 5.2-13.3L5.2-13.3Q5.2-13.15 4.63-12.9 4.05-12.65 3.9-12.55L3.9-12.55Q3.3-12.3 2.75-12.08 2.2-11.85 1.7-11.6ZM45.35-13.85L45.35-13.85Q45.5-15.2 45.4-16.7 45.3-18.2 44.77-19.48 44.25-20.75 43.17-21.6 42.1-22.45 40.35-22.45L40.35-22.45Q38-22.45 36.25-21.18 34.5-19.9 33.25-18.03 32-16.15 31.3-14.03 30.6-11.9 30.4-10.15L30.4-10.15Q30.1-7.75 30.32-6 30.55-4.25 31.15-3.13 31.75-2 32.67-1.45 33.6-0.9 34.7-0.9L34.7-0.9Q36.25-0.85 37.97-1.78 39.7-2.7 41.2-4.38 42.7-6.05 43.82-8.47 44.95-10.9 45.35-13.85ZM29.25-10.4L29.25-10.4Q29.45-12.4 30.25-14.8 31.05-17.2 32.47-19.25 33.9-21.3 35.9-22.68 37.9-24.05 40.55-24.05L40.55-24.05Q42.55-24.05 43.85-23.1 45.15-22.15 45.85-20.68 46.55-19.2 46.75-17.48 46.95-15.75 46.75-14.2L46.75-14.2Q46.3-10.6 45-7.95 43.7-5.3 41.95-3.53 40.2-1.75 38.25-0.88 36.3 0 34.5 0L34.5 0Q33.15 0 32.07-0.6 31-1.2 30.27-2.48 29.55-3.75 29.27-5.73 29-7.7 29.25-10.4ZM34.85-3.35L34.85-3.35Q34.6-3.35 34.35-3.53 34.1-3.7 33.95-3.95 33.8-4.2 33.75-4.45 33.7-4.7 33.95-4.8L33.95-4.8Q34.1-4.85 34.35-4.45 34.6-4.05 34.9-4.05L34.9-4.05Q35.4-4.05 36.07-4.7 36.75-5.35 37.37-6.23 38-7.1 38.47-7.95 38.95-8.8 39.15-9.2L39.15-9.2Q39.35-9.6 39.55-10.23 39.75-10.85 39.92-11.5 40.1-12.15 40.22-12.78 40.35-13.4 40.4-13.85L40.4-13.85Q40.65-16.1 40.3-17.32 39.95-18.55 39.15-18.55L39.15-18.55Q38.55-18.55 37.9-18.18 37.25-17.8 36.67-17.2 36.1-16.6 35.65-15.88 35.2-15.15 35-14.4L35-14.4Q34.75-13.55 34.65-13.55L34.65-13.55Q34.5-13.55 34.5-14.4L34.5-14.4Q34.65-15.35 35.15-16.28 35.65-17.2 36.4-17.93 37.15-18.65 38.05-19.13 38.95-19.6 39.9-19.6L39.9-19.6Q40.85-19.6 41.32-18.93 41.8-18.25 42-17.28 42.2-16.3 42.17-15.28 42.15-14.25 42.05-13.65L42.05-13.65Q41.85-12.3 41.42-11.03 41-9.75 40.4-8.45L40.4-8.45Q40.1-7.85 39.5-6.98 38.9-6.1 38.12-5.3 37.35-4.5 36.47-3.93 35.6-3.35 34.85-3.35ZM36.45-2.4L36.45-2.4Q36.5-2.1 35.97-1.9 35.45-1.7 34.9-1.7L34.9-1.7Q33.35-1.75 32.52-2.7 31.7-3.65 31.37-4.95 31.05-6.25 31.07-7.65 31.1-9.05 31.2-10L31.2-10Q31.4-11.65 32-13.7 32.6-15.75 33.7-17.55 34.8-19.35 36.4-20.58 38-21.8 40.2-21.8L40.2-21.8Q41.65-21.8 42.52-21.05 43.4-20.3 43.82-19.2 44.25-18.1 44.32-16.82 44.4-15.55 44.25-14.5L44.25-14.5Q44.15-13.35 43.9-12.4 43.65-11.45 43.2-10.3L43.2-10.3Q43.05-9.95 42.8-9.5 42.55-9.05 42.25-9.1L42.25-9.1Q42.1-9.15 42.17-9.5 42.25-9.85 42.37-10.38 42.5-10.9 42.65-11.48 42.8-12.05 42.85-12.55L42.85-12.55Q42.95-13.4 42.97-14.68 43-15.95 42.77-17.15 42.55-18.35 41.95-19.2 41.35-20.05 40.15-20.05L40.15-20.05Q38.4-20.05 36.92-18.93 35.45-17.8 34.35-16.18 33.25-14.55 32.57-12.78 31.9-11 31.75-9.65L31.75-9.65Q31.65-8.85 31.7-7.65 31.75-6.45 32.07-5.28 32.4-4.1 33.15-3.25 33.9-2.4 35.2-2.35L35.2-2.35Q35.6-2.3 35.97-2.43 36.35-2.55 36.45-2.4ZM64.45-15.8L64.45-15.8Q63.84-13.95 63.02-12.25 62.2-10.55 61.3-8.85L61.3-8.85Q61.2-8.75 61-8.38 60.8-8 60.65-8.1L60.65-8.1Q60.55-8.1 60.57-8.4 60.6-8.7 60.6-8.85L60.6-8.85Q60.65-9.25 60.82-10 61-10.75 61.22-11.58 61.45-12.4 61.67-13.18 61.9-13.95 62.05-14.4L62.05-14.4Q62.9-17.1 63.15-19.2 63.4-21.3 62.85-22.75L62.85-22.75Q62.75-23 62.85-23L62.85-23Q62.95-23 63.05-22.9 63.15-22.8 63.2-22.75L63.2-22.75Q63.75-22.15 64.09-21.23 64.45-20.3 64.59-19.33 64.75-18.35 64.7-17.4 64.65-16.45 64.45-15.8ZM65.8-19.4L65.8-19.4Q66.45-18.4 66.4-16.9 66.34-15.4 66.02-13.8 65.7-12.2 65.22-10.75 64.75-9.3 64.5-8.45L64.5-8.45Q64-6.8 63.3-5.08 62.6-3.35 62.05-2.1L62.05-2.1Q61.85-1.65 61.75-1.7L61.75-1.7Q61.6-1.75 61.57-1.93 61.55-2.1 61.55-2.2L61.55-2.2Q61.55-4.9 62.32-7.4 63.09-9.9 64-12.45L64-12.45Q64.55-14.1 65-15.73 65.45-17.35 65.45-19.3L65.45-19.3Q65.45-19.65 65.55-19.65L65.55-19.65Q65.59-19.65 65.65-19.58 65.7-19.5 65.8-19.4ZM55.8-3.7L55.8-3.7Q55.9-3.55 55.45-3.25 55-2.95 54.85-2.9L54.85-2.9Q52.65-2.1 51.42-2.85 50.2-3.6 49.67-5.1 49.15-6.6 49.15-8.43 49.15-10.25 49.35-11.7L49.35-11.7Q49.5-12.95 49.92-14.48 50.35-16 50.95-17.48 51.55-18.95 52.32-20.23 53.1-21.5 54-22.2L54-22.2Q54.1-22.25 54.22-22.35 54.35-22.45 54.45-22.45L54.45-22.45Q54.6-22.4 54.3-21.9L54.3-21.9Q54-21.4 53.57-20.5 53.15-19.6 52.7-18.43 52.25-17.25 51.82-15.95 51.4-14.65 51.15-13.35L51.15-13.35Q50.9-12.05 50.8-10.85 50.7-9.65 50.7-8.7 50.7-7.75 50.75-7.1 50.8-6.45 50.85-6.25L50.85-6.25Q51.2-4.7 52.17-3.98 53.15-3.25 54.8-3.55L54.8-3.55Q54.85-3.55 55.3-3.65 55.75-3.75 55.8-3.7ZM62.25 0.15L62.25 0.15Q62.45 0.35 62.45 0.45L62.45 0.45Q62.45 0.55 62.22 0.5 62 0.45 61.9 0.4L61.9 0.4Q61.5 0.2 60.9-0.18 60.3-0.55 60-1.5L60-1.5Q59.85-1.9 59.8-2.48 59.75-3.05 59.75-3.55 59.75-4.05 59.85-4.38 59.95-4.7 60.1-4.65L60.1-4.65Q60.2-4.6 60.32-4.2 60.45-3.8 60.55-3.35L60.55-3.35Q60.65-2.8 60.8-2.33 60.95-1.85 61.15-1.35L61.15-1.35Q61.4-0.8 61.65-0.48 61.9-0.15 62.25 0.15ZM57.65-2.6L57.65-2.6Q57.1-1.75 55.97-0.88 54.85 0 52.95 0L52.95 0Q51.45 0 50.37-0.8 49.3-1.6 48.62-2.8 47.95-4 47.67-5.43 47.4-6.85 47.4-8.15L47.4-8.15Q47.45-9.75 47.67-11.35 47.9-12.95 48.27-14.35 48.65-15.75 49.12-16.85 49.6-17.95 50.1-18.65L50.1-18.65Q50.2-18.7 50.32-18.88 50.45-19.05 50.55-18.95L50.55-18.95Q50.6-18.9 50.52-18.73 50.45-18.55 50.4-18.45L50.4-18.45Q49.95-16.95 49.52-15.28 49.1-13.6 48.85-11.9 48.6-10.2 48.6-8.55 48.6-6.9 48.9-5.5L48.9-5.5Q49.1-4.55 49.62-3.75 50.15-2.95 50.77-2.4 51.4-1.85 52.12-1.6 52.85-1.35 53.55-1.45L53.55-1.45Q55-1.65 55.75-2.27 56.5-2.9 56.82-3.78 57.15-4.65 57.22-5.68 57.3-6.7 57.45-7.75L57.45-7.75Q57.2-7.05 56.47-6.38 55.75-5.7 54.92-5.33 54.1-4.95 53.32-5 52.55-5.05 52.15-5.9L52.15-5.9Q51.65-7 51.6-8.3 51.55-9.6 51.65-11.15L51.65-11.15Q51.75-12.7 52.1-14.35 52.45-16 53.05-17.53 53.65-19.05 54.47-20.4 55.3-21.75 56.35-22.8L56.35-22.8 56.55-23Q56.7-23.15 56.85-23.15L56.85-23.15Q56.85-23.15 56.65-22.65L56.65-22.65Q55.2-19.95 54.2-17.07 53.2-14.2 53-11.25L53-11.25Q52.75-8 53.32-7 53.9-6 54.75-6.43 55.6-6.85 56.57-8.28 57.55-9.7 58.15-11.35L58.15-11.35Q58.7-12.85 59.32-14.45 59.95-16.05 60.47-17.68 61-19.3 61.27-20.85 61.55-22.4 61.4-23.75L61.4-23.75Q61.4-24 61.5-24L61.5-24Q61.55-24 61.55-23.95L61.55-23.95Q61.55-23.85 61.6-23.85L61.6-23.85Q61.65-23.8 61.65-23.75L61.65-23.75Q62.45-22.05 62.37-20.3 62.3-18.55 61.77-16.75 61.25-14.95 60.52-13.08 59.8-11.2 59.3-9.3L59.3-9.3Q59-8.1 58.85-6.78 58.7-5.45 58.8-4.15 58.9-2.85 59.35-1.68 59.8-0.5 60.65 0.3L60.65 0.3Q60.75 0.4 60.75 0.45L60.75 0.45Q60.75 0.55 60.62 0.53 60.5 0.5 60.4 0.45L60.4 0.45Q59.45 0.1 58.75-0.7 58.05-1.5 57.65-2.6ZM73.09-18.45L73.09-18.45Q73.14-18.9 73.39-19.53 73.64-20.15 74.07-20.73 74.49-21.3 75.09-21.78 75.69-22.25 76.44-22.4L76.44-22.4Q78.04-22.7 79.09-22.2 80.14-21.7 80.69-21.05L80.69-21.05Q80.89-20.75 80.84-20.7L80.84-20.7Q80.74-20.6 80.49-20.75L80.49-20.75Q80.19-20.95 79.52-21.1 78.84-21.25 78.07-21.18 77.29-21.1 76.57-20.7 75.84-20.3 75.39-19.4L75.39-19.4Q74.99-18.55 74.84-17.65 74.69-16.75 74.67-15.98 74.64-15.2 74.69-14.65 74.74-14.1 74.74-13.9L74.74-13.9Q74.84-13.35 74.92-12.53 74.99-11.7 74.99-10.85 74.99-10 74.94-9.18 74.89-8.35 74.74-7.75L74.74-7.75Q74.69-7.6 74.62-7.25 74.54-6.9 74.44-6.9L74.44-6.9Q74.19-6.9 74.19-7.25 74.19-7.6 74.19-7.75L74.19-7.75Q74.09-9 73.84-10.28 73.59-11.55 73.37-12.9 73.14-14.25 73.04-15.63 72.94-17 73.09-18.45ZM71.34-8.55L71.34-8.55Q71.39-9.55 71.17-11.38 70.94-13.2 70.99-15.6L70.99-15.6Q71.04-16.85 71.24-18.18 71.44-19.5 72.19-20.8L72.19-20.8Q72.99-22.2 74.22-22.88 75.44-23.55 76.34-23.5L76.34-23.5Q76.49-23.5 76.64-23.5 76.79-23.5 76.79-23.45L76.79-23.45Q76.79-23.35 76.74-23.38 76.69-23.4 76.39-23.3L76.39-23.3Q75.49-23.05 74.79-22.48 74.09-21.9 73.59-21.15 73.09-20.4 72.79-19.6 72.49-18.8 72.44-18.15L72.44-18.15Q72.14-15.4 72.49-13.35L72.49-13.35Q72.74-11.7 72.89-9.93 73.04-8.15 72.77-6.68 72.49-5.2 71.72-4.23 70.94-3.25 69.34-3.15L69.34-3.15Q69.19-3.15 68.97-3.18 68.74-3.2 68.74-3.3L68.74-3.3Q68.74-3.4 69.19-3.65L69.19-3.65Q70.49-4.25 70.89-5.4 71.29-6.55 71.34-8.55ZM66.04-2.65L66.04-2.65Q66.74-1.55 68.27-1.03 69.79-0.5 71.89-1.1L71.89-1.1Q72.94-1.4 73.74-2.15 74.54-2.9 75.07-3.83 75.59-4.75 75.87-5.75 76.14-6.75 76.19-7.6L76.19-7.6Q76.24-9 76.12-10.35 75.99-11.7 75.82-12.98 75.64-14.25 75.52-15.45 75.39-16.65 75.49-17.8L75.49-17.8Q75.59-19.05 76.19-19.7 76.79-20.35 77.67-20.53 78.54-20.7 79.49-20.4 80.44-20.1 81.24-19.45L81.24-19.45Q81.44-19.35 81.39-19.2L81.39-19.2Q81.39-19.1 81.29-19.15 81.19-19.2 81.09-19.25L81.09-19.25Q79.24-19.85 78.22-19.6 77.19-19.35 77.09-17.8L77.09-17.8Q76.99-16 77.37-13.58 77.74-11.15 77.64-8.2L77.64-8.2Q77.69-7.2 77.42-5.9 77.14-4.6 76.52-3.38 75.89-2.15 74.87-1.2 73.84-0.25 72.44 0L72.44 0Q69.79 0.4 68.22-0.3 66.64-1 65.94-2.45L65.94-2.45Q65.84-2.75 65.84-2.8L65.84-2.8 65.89-2.8Q65.89-2.8 66.04-2.65ZM68.24-2.65L68.24-2.65Q69.19-2.4 70.54-2.45L70.54-2.45Q70.99-2.5 71.64-2.7 72.29-2.9 72.34-2.8L72.34-2.8Q72.49-2.6 72.04-2.3 71.59-2 70.89-1.78 70.19-1.55 69.44-1.48 68.69-1.4 68.19-1.6L68.19-1.6Q67.24-2 66.82-2.48 66.39-2.95 66.04-3.65L66.04-3.65 65.94-3.85Q65.84-4.05 65.89-4.1L65.89-4.1Q65.94-4.15 66.04-4.1L66.04-4.1Q66.09-4.05 66.09-4L66.09-4Q66.69-3.45 67.12-3.18 67.54-2.9 68.24-2.65ZM95.79-20.4L95.79-20.4Q96.19-19.9 96.42-19.15 96.64-18.4 96.59-17.53 96.54-16.65 96.19-15.7 95.84-14.75 95.09-13.85L95.09-13.85Q93.64-12.15 91.92-11.23 90.19-10.3 88.79-10.3L88.79-10.3Q87.94-10.3 88.79-10.6L88.79-10.6Q89.24-10.75 89.87-11.08 90.49-11.4 91.19-11.88 91.89-12.35 92.62-13 93.34-13.65 93.94-14.5L93.94-14.5Q94.94-15.9 95.12-17.23 95.29-18.55 94.59-19.25L94.59-19.25Q93.99-19.85 93.19-19.93 92.39-20 90.79-19.05L90.79-19.05Q89.34-18.2 88.19-16.95 87.04-15.7 86.04-14.3L86.04-14.3Q85.49-13.6 85.32-13.6 85.14-13.6 85.44-14.5L85.44-14.5Q86.04-16.25 87.12-17.75 88.19-19.25 89.69-20.3L89.69-20.3Q90.79-21.05 91.72-21.35 92.64-21.65 93.42-21.6 94.19-21.55 94.79-21.23 95.39-20.9 95.79-20.4ZM98.49-16.9L98.49-16.9Q98.29-15.7 97.87-14.88 97.44-14.05 96.92-13.48 96.39-12.9 95.87-12.55 95.34-12.2 94.94-11.9L94.94-11.9Q94.74-11.75 94.64-11.85 94.54-11.95 94.79-12.2L94.79-12.2Q95.69-12.95 96.62-14.23 97.54-15.5 97.59-17.05L97.59-17.05Q97.59-19.7 96.29-21.1L96.29-21.1Q94.99-22.5 93.04-22.33 91.09-22.15 88.99-20.8L88.99-20.8Q87.64-19.95 86.62-18.82 85.59-17.7 84.84-16.43 84.09-15.15 83.62-13.8 83.14-12.45 82.94-11.1L82.94-11.1Q82.74-9.8 82.57-8.3 82.39-6.8 82.57-5.35 82.74-3.9 83.49-2.58 84.24-1.25 85.84-0.3L85.84-0.3Q86.09-0.15 86.37-0.1 86.64-0.05 86.64 0L86.64 0Q86.64 0.1 86.39 0.13 86.14 0.15 85.84 0.05L85.84 0.05Q84.59-0.2 83.72-0.98 82.84-1.75 82.29-2.75 81.74-3.75 81.44-4.85 81.14-5.95 81.09-6.85L81.09-6.85Q80.79-10.8 82.19-14.65L82.19-14.65Q82.49-15.45 82.97-16.45 83.44-17.45 84.14-18.48 84.84-19.5 85.79-20.48 86.74-21.45 87.94-22.2L87.94-22.2Q89.09-22.9 90.34-23.25 91.59-23.6 92.84-23.58 94.09-23.55 95.19-23.13 96.29-22.7 97.14-21.85L97.14-21.85Q97.89-21.05 98.32-19.8 98.74-18.55 98.49-16.9ZM93.94-18.7L93.94-18.7Q94.54-18 94.09-16.53 93.64-15.05 91.99-13.55L91.99-13.55Q91.09-12.7 90.24-12.18 89.39-11.65 88.09-11.25L88.09-11.25Q87.54-9.35 87.39-7.5 87.24-5.65 87.49-4.5L87.49-4.5Q87.54-4.05 87.82-3.63 88.09-3.2 88.62-2.98 89.14-2.75 89.99-2.8 90.84-2.85 92.09-3.35L92.09-3.35Q92.44-3.5 92.52-3.43 92.59-3.35 92.19-3.1L92.19-3.1Q91.29-2.4 90.29-2.13 89.29-1.85 88.42-1.95 87.54-2.05 86.92-2.55 86.29-3.05 86.09-3.9L86.09-3.9Q85.69-5.65 85.74-7.55 85.79-9.45 86.32-11.3 86.84-13.15 87.82-14.78 88.79-16.4 90.24-17.55L90.24-17.55Q92.94-19.7 93.94-18.7ZM93.44-2.75L93.44-2.75Q93.09-2.25 92.57-1.78 92.04-1.3 91.37-0.93 90.69-0.55 89.97-0.3 89.24-0.05 88.49-0.05L88.49-0.05Q87.19-0.05 86.07-0.63 84.94-1.2 84.34-2.95L84.34-2.95Q84.24-3.15 84.24-3.33 84.24-3.5 84.34-3.5L84.34-3.5Q84.54-3.6 84.74-3.38 84.94-3.15 85.14-2.9L85.14-2.9Q85.69-2.25 86.57-1.75 87.44-1.25 88.24-1.25L88.24-1.25Q89.74-1.25 90.84-1.7 91.94-2.15 92.94-2.9L92.94-2.9Q93.19-3.05 93.52-3.2 93.84-3.35 93.44-2.75ZM92.74-17.35L92.74-17.35Q92.54-17.75 91.29-16.7L91.29-16.7Q90.14-15.8 89.47-14.63 88.79-13.45 88.29-12.05L88.29-12.05Q89.24-12.5 90.04-13.08 90.84-13.65 91.54-14.2L91.54-14.2Q92.29-14.85 92.64-15.9 92.99-16.95 92.74-17.35Z" opacity="1" transform="matrix(1,0,0,1,0,0)" fill="#2d4f8f" class="undefined-tk-0"></path></svg></g><g><svg xmlns="http://www.w3.org/2000/svg" xmlns:xlink="http://www.w3.org/1999/xlink" version="1.1" x="113.48655223937989" y="0" viewBox="0 0.0005736863287100612 24.002 30.009196580373164" style="enable-background:new 0 0 24 30.296;" xml:space="preserve" id="dxe-0" width="50.18563052984182" height="62.74604000000001" class="icon-dxe-0" data-fill-palette-color="accent"><g fill="#ffa670" data-fill-palette-color="accent"><g fill="#ffa670" data-fill-palette-color="accent"><path d="M15.945 11.208L20.804 1.571A1.08 1.08 0 0 0 20.325 0.118 1.076 1.076 0 0 0 18.873 0.597L14.019 10.228C14.375 10.306 14.724 10.419 15.049 10.585 15.385 10.753 15.677 10.972 15.945 11.208" fill="#ffa670" data-fill-palette-color="accent"></path><path d="M14.73 19.32L8.214 16.037A16.8 16.8 0 0 1 2.972 20.324L0.456 21.637C0.435 21.649 0.423 21.672 0.401 21.688 0.364 21.715 0.336 21.747 0.305 21.78 0.283 21.807 0.256 21.831 0.239 21.864 0.235 21.87 0.141 21.876 0.139 21.882 0.105 21.949 0 22.027 0 22.109V22.113C0 22.691 0.811 23.582 2.048 24.566L4.641 21.83 2.876 25.127A27.5 27.5 0 0 0 5.889 26.977L9.094 21.897 7.293 27.682C8.316 28.166 9.3 28.571 10.206 28.883L12.011 23.897 11.165 29.19C12.156 29.475 13.018 29.637 13.648 29.637 14.238 29.637 14.638 29.502 14.781 29.221 14.786 29.213 14.785 29.203 14.788 29.196 14.803 29.167 14.805 29.135 14.812 29.104A0.5 0.5 0 0 0 14.83 28.956C14.83 28.933 14.843 28.913 14.839 28.89L14.4 26.085A16.9 16.9 0 0 1 14.73 19.32" fill="#ffa670" data-fill-palette-color="accent"></path><path d="M14.563 11.55A3.26 3.26 0 0 0 12.084 11.364 3.25 3.25 0 0 0 10.203 12.985 17 17 0 0 1 8.889 15.163L15.035 18.261C15.298 17.458 15.618 16.671 16.002 15.911A3.25 3.25 0 0 0 14.563 11.55" fill="#ffa670" data-fill-palette-color="accent"></path><circle cx="18.002" cy="29.296" r="1.0" fill="#ffa670" data-fill-palette-color="accent"></circle><circle cx="20.002" cy="26.296" r="1.0" fill="#ffa670" data-fill-palette-color="accent"></circle><circle cx="23.002" cy="29.296" r="1.0" fill="#ffa670" data-fill-palette-color="accent"></circle></g></g></svg></g><g transform="matrix(1,0,0,1,178.48614276922171,10.08913106872559)"><svg width="109.90090909090908" viewBox="0.809090909090909 -38.25 109.89090909090908 38.56944455555" height="38.57" data-palette-color="#2d4f8f"><path d="M14.05-2.1L14.05-2.1Q15.85-2.4 17.53-3.2 19.2-4 20.55-5.25L20.55-5.25Q20.65-5.3 20.95-5.6 21.25-5.9 21.35-5.8L21.35-5.8Q21.45-5.7 21.3-5.5 21.15-5.3 21.05-5.15L21.05-5.15Q20.05-3.7 18.43-2.78 16.8-1.85 15.05-1.3L15.05-1.3Q13.6-0.9 11.95-1.03 10.3-1.15 8.85-1.85L8.85-1.85Q8.4-2.05 8.3-2.18 8.2-2.3 8.3-2.35 8.4-2.4 8.63-2.4 8.85-2.4 9.05-2.35L9.05-2.35Q9.6-2.25 10.33-2.18 11.05-2.1 11.78-2.08 12.5-2.05 13.1-2.05 13.7-2.05 14.05-2.1ZM7.35-16.8L7.35-16.8Q7.1-15.05 7.1-13.38 7.1-11.7 7.33-10.23 7.55-8.75 8.03-7.6 8.5-6.45 9.2-5.7L9.2-5.7Q10-4.9 11.18-4.48 12.35-4.05 13.73-4.05 15.1-4.05 16.63-4.45 18.15-4.85 19.65-5.7L19.65-5.7Q19.95-5.9 20.05-5.8L20.05-5.8Q20.15-5.7 19.98-5.58 19.8-5.45 19.65-5.35L19.65-5.35Q18.35-4.35 16.9-3.75 15.45-3.15 13.98-3 12.5-2.85 11.13-3.18 9.75-3.5 8.65-4.4L8.65-4.4Q7.6-5.3 6.95-6.58 6.3-7.85 5.98-9.38 5.65-10.9 5.6-12.55 5.55-14.2 5.7-15.8L5.7-15.8Q5.9-18.35 6.7-20.95 7.5-23.55 8.83-25.75 10.15-27.95 12-29.6 13.85-31.25 16.15-31.9L16.15-31.9Q17.3-32.2 18.5-32.15 19.7-32.1 20.73-31.7 21.75-31.3 22.5-30.53 23.25-29.75 23.5-28.65L23.5-28.65Q23.75-27.45 23.3-26.33 22.85-25.2 22.05-24.38 21.25-23.55 20.25-23.2 19.25-22.85 18.35-23.2L18.35-23.2Q18.3-23.2 18.28-23.35 18.25-23.5 18.45-23.45L18.45-23.45Q19.05-23.35 19.83-23.73 20.6-24.1 21.23-24.75 21.85-25.4 22.23-26.3 22.6-27.2 22.45-28.15L22.45-28.15Q22.3-28.85 21.83-29.38 21.35-29.9 20.6-30.23 19.85-30.55 18.93-30.65 18-30.75 17-30.55L17-30.55Q15.1-30.2 13.48-28.88 11.85-27.55 10.6-25.65 9.35-23.75 8.5-21.43 7.65-19.1 7.35-16.8ZM11.3-0.25L11.3-0.25Q11.85-0.2 12.43-0.2 13-0.2 13-0.05L13-0.05Q13 0 12.8 0.03 12.6 0.05 12.38 0.05 12.15 0.05 11.9 0.05 11.65 0.05 11.6 0.05L11.6 0.05Q10.05 0.05 8.55-0.4 7.05-0.85 5.78-1.68 4.5-2.5 3.5-3.7 2.5-4.9 2-6.45L2-6.45Q1-9.5 0.85-12.4 0.7-15.3 1.1-18.1L1.1-18.1Q1.3-19.7 1.88-21.73 2.45-23.75 3.43-25.85 4.4-27.95 5.88-30 7.35-32.05 9.4-33.75L9.4-33.75Q11.55-35.55 14.18-36.15 16.8-36.75 19.2-36.35 21.6-35.95 23.45-34.68 25.3-33.4 25.9-31.45L25.9-31.45Q25.95-31.35 26-31.03 26.05-30.7 25.95-30.6L25.95-30.6Q25.9-30.55 25.8-30.85 25.7-31.15 25.6-31.25L25.6-31.25Q23.5-34.1 20.85-34.88 18.2-35.65 15.6-35.02 13-34.4 10.7-32.73 8.4-31.05 7.05-29L7.05-29Q4.7-25.45 3.48-21.45 2.25-17.45 2.35-13.2L2.35-13.2Q2.4-11.25 2.78-9.1 3.15-6.95 4.25-5L4.25-5Q5.35-3 7.28-1.68 9.2-0.35 11.3-0.25ZM4.1-19.05L4.1-19.05Q4.5-21.7 5.38-24.2 6.25-26.7 7.68-28.78 9.1-30.85 11.2-32.35 13.3-33.85 16.15-34.45L16.15-34.45Q17.15-34.65 18.4-34.63 19.65-34.6 20.9-34.18 22.15-33.75 23.23-32.9 24.3-32.05 25-30.55L25-30.55Q25.65-29.1 25.45-27.7 25.25-26.3 24.6-25.18 23.95-24.05 23-23.3 22.05-22.55 21.15-22.45L21.15-22.45Q20.6-22.35 20.55-22.48 20.5-22.6 21.1-22.8L21.1-22.8Q22.05-23.1 23.03-24.33 24-25.55 24.2-27.45L24.2-27.45Q24.3-28.4 23.95-29.33 23.6-30.25 22.95-30.95 22.3-31.65 21.4-32.15 20.5-32.65 19.5-32.8L19.5-32.8Q17.35-33.1 15.55-32.5 13.75-31.9 12.43-30.98 11.1-30.05 10.28-29.15 9.45-28.25 9.25-27.95L9.25-27.95Q7.7-26 6.55-23.73 5.4-21.45 4.65-18.95L4.65-18.95Q4.65-18.9 4.58-18.6 4.5-18.3 4.42-17.98 4.35-17.65 4.25-17.38 4.15-17.1 4.1-17.1L4.1-17.1Q4-17.1 4-17.4 4-17.7 4-18.03 4-18.35 4.05-18.65 4.1-18.95 4.1-19.05ZM35-26.35L35-26.35Q34.15-23.4 33.07-20.3 32-17.2 30.85-14.45L30.85-14.45Q30.8-14.3 30.57-13.9 30.35-13.5 30.2-13.55L30.2-13.55Q30.1-13.55 30.07-14.03 30.05-14.5 30.1-14.75L30.1-14.75Q30.2-15.4 30.4-16.35 30.6-17.3 30.82-18.3 31.05-19.3 31.27-20.25 31.5-21.2 31.75-21.9L31.75-21.9Q31.85-22.2 32.1-23.2 32.35-24.2 32.65-25.6 32.95-27 33.27-28.6 33.6-30.2 33.82-31.7 34.05-33.2 34.15-34.45 34.25-35.7 34.1-36.35L34.1-36.35Q33.95-36.85 34.1-36.85L34.1-36.85Q34.2-36.85 34.27-36.73 34.35-36.6 34.45-36.5L34.45-36.5Q34.95-35.6 35.22-34.3 35.5-33 35.55-31.6 35.6-30.2 35.45-28.8 35.3-27.4 35-26.35ZM33-37.9L33-37.9Q33.65-35.35 33.32-32.55 33-29.75 32.2-26.85 31.4-23.95 30.4-20.98 29.4-18 28.7-15L28.7-15Q28.25-13.1 27.97-11.08 27.7-9.05 27.7-7.08 27.7-5.1 28.02-3.28 28.35-1.45 29.15 0L29.15 0Q29.25 0.2 29.22 0.3 29.2 0.4 28.9 0L28.9 0Q27.6-1.5 26.97-3.4 26.35-5.3 26.25-7.4 26.15-9.5 26.45-11.75 26.75-14 27.3-16.15L27.3-16.15Q28.05-19.15 28.97-22.05 29.9-24.95 30.72-27.7 31.55-30.45 32.1-33.02 32.65-35.6 32.65-38L32.65-38Q32.65-38.25 32.7-38.25L32.7-38.25Q32.9-38.25 33-37.9ZM42.1 0L42.1 0Q40.25-0.85 39.15-2.65 38.05-4.45 37.8-6.8L37.8-6.8Q37.55-9.1 37.8-10.63 38.05-12.15 38.4-13.65L38.4-13.65Q38.45-13.85 38.6-14.33 38.75-14.8 38.82-15.3 38.9-15.8 38.82-16.18 38.75-16.55 38.4-16.65L38.4-16.65Q37.7-16.8 36.8-16.03 35.9-15.25 35.07-14.1 34.25-12.95 33.57-11.73 32.9-10.5 32.7-9.8L32.7-9.8Q32.25-8.35 31.75-7.05 31.25-5.75 30.85-4.45L30.85-4.45Q30.7-3.9 30.6-3.95L30.6-3.95Q30.5-3.95 30.47-4.15 30.45-4.35 30.45-4.6L30.45-4.6Q30.45-6.6 30.75-8.63 31.05-10.65 31.57-12.65 32.1-14.65 32.75-16.65 33.4-18.65 34-20.7L34-20.7Q34.8-23.25 35.52-25.9 36.25-28.55 36.5-31.6L36.5-31.6Q36.5-31.85 36.5-31.88 36.5-31.9 36.55-31.9L36.55-31.9Q36.7-31.9 36.8-31.5L36.8-31.5Q37.05-30.85 37.02-29.68 37-28.5 36.82-27.1 36.65-25.7 36.32-24.25 36-22.8 35.65-21.65L35.65-21.65Q36.6-22.65 37.9-23.2 39.2-23.75 41-23.5L41-23.5Q43.05-23.2 44.15-22.03 45.25-20.85 45.65-19.2 46.05-17.55 45.87-15.68 45.7-13.8 45.25-12.05L45.25-12.05Q44.85-10.7 44.5-9.68 44.15-8.65 43.8-7.8 43.45-6.95 43.2-6.2 42.95-5.45 42.8-4.6L42.8-4.6Q42.7-4.05 42.6-4.05L42.6-4.05Q42.5-4.05 42.42-4.25 42.35-4.45 42.3-4.65L42.3-4.65Q42-5.75 42.27-7.35 42.55-8.95 43-10.73 43.45-12.5 43.82-14.33 44.2-16.15 44.12-17.7 44.05-19.25 43.3-20.43 42.55-21.6 40.75-22.05L40.75-22.05Q40-22.25 39.12-22.18 38.25-22.1 37.47-21.78 36.7-21.45 36.1-20.85 35.5-20.25 35.3-19.45L35.3-19.45Q36.25-20.45 37.75-21.1 39.25-21.75 40.65-21.3L40.65-21.3Q41.95-20.9 42.5-19.85 43.05-18.8 43.15-18L43.15-18Q43.35-16.25 42.92-14.83 42.5-13.4 41.95-12.1L41.95-12.1Q41.85-11.95 41.65-11.63 41.45-11.3 41.35-11.35L41.35-11.35Q41.25-11.35 41.25-11.75 41.25-12.15 41.3-12.35L41.3-12.35Q41.45-12.85 41.55-13.93 41.65-15 41.62-16.15 41.6-17.3 41.32-18.3 41.05-19.3 40.45-19.65L40.45-19.65Q39.75-20.05 38.75-19.88 37.75-19.7 36.6-18.65L36.6-18.65Q35.6-17.75 34.9-16.57 34.2-15.4 33.7-13.5L33.7-13.5Q34-14.05 34.65-15.05 35.3-16.05 36.12-16.95 36.95-17.85 37.87-18.38 38.8-18.9 39.65-18.5L39.65-18.5Q40.2-18.2 40.37-17.48 40.55-16.75 40.47-15.85 40.4-14.95 40.2-14.1 40-13.25 39.85-12.75L39.85-12.75Q39.3-11.25 39.1-9.47 38.9-7.7 39.12-6 39.35-4.3 40.1-2.8 40.85-1.3 42.3-0.25L42.3-0.25Q42.75 0 42.47 0 42.2 0 42.1 0ZM43.4-0.4L43.4-0.4Q42.7-0.8 42.07-1.25 41.45-1.7 40.85-3L40.85-3Q40.6-3.5 40.47-4.35 40.35-5.2 40.32-5.98 40.3-6.75 40.4-7.28 40.5-7.8 40.65-7.75L40.65-7.75Q40.75-7.75 40.85-7.53 40.95-7.3 41-7 41.05-6.7 41.1-6.43 41.15-6.15 41.15-6.05L41.15-6.05Q41.35-4.95 41.5-4.42 41.65-3.9 41.9-3.3L41.9-3.3Q42.3-2.5 42.7-1.85 43.1-1.2 43.7-0.65L43.7-0.65Q43.95-0.45 43.82-0.35 43.7-0.25 43.4-0.4ZM30.75 0L30.75 0Q30.8 0 30.67 0.05 30.55 0.1 30.2 0L30.2 0Q29.8-0.2 29.37-0.75 28.95-1.3 28.7-2.9L28.7-2.9Q28.6-3.55 28.6-4.48 28.6-5.4 28.67-6.23 28.75-7.05 28.9-7.65 29.05-8.25 29.25-8.2L29.25-8.2Q29.3-8.2 29.35-7.9 29.4-7.6 29.45-7.23 29.5-6.85 29.5-6.48 29.5-6.1 29.5-5.95L29.5-5.95Q29.55-4.85 29.62-4.33 29.7-3.8 29.85-2.9L29.85-2.9Q30-1.95 30.2-1.18 30.4-0.4 30.75 0ZM63-13.85L63-13.85Q63.15-15.2 63.05-16.7 62.95-18.2 62.42-19.48 61.9-20.75 60.82-21.6 59.75-22.45 58-22.45L58-22.45Q55.65-22.45 53.9-21.18 52.15-19.9 50.9-18.03 49.65-16.15 48.95-14.03 48.25-11.9 48.05-10.15L48.05-10.15Q47.75-7.75 47.97-6 48.2-4.25 48.8-3.13 49.4-2 50.32-1.45 51.25-0.9 52.35-0.9L52.35-0.9Q53.9-0.85 55.62-1.78 57.35-2.7 58.85-4.38 60.35-6.05 61.47-8.47 62.6-10.9 63-13.85ZM46.9-10.4L46.9-10.4Q47.1-12.4 47.9-14.8 48.7-17.2 50.12-19.25 51.55-21.3 53.55-22.68 55.55-24.05 58.2-24.05L58.2-24.05Q60.2-24.05 61.5-23.1 62.8-22.15 63.5-20.68 64.2-19.2 64.4-17.48 64.6-15.75 64.4-14.2L64.4-14.2Q63.95-10.6 62.65-7.95 61.35-5.3 59.6-3.53 57.85-1.75 55.9-0.88 53.95 0 52.15 0L52.15 0Q50.8 0 49.72-0.6 48.65-1.2 47.92-2.48 47.2-3.75 46.92-5.73 46.65-7.7 46.9-10.4ZM52.5-3.35L52.5-3.35Q52.25-3.35 52-3.53 51.75-3.7 51.6-3.95 51.45-4.2 51.4-4.45 51.35-4.7 51.6-4.8L51.6-4.8Q51.75-4.85 52-4.45 52.25-4.05 52.55-4.05L52.55-4.05Q53.05-4.05 53.72-4.7 54.4-5.35 55.02-6.23 55.65-7.1 56.12-7.95 56.6-8.8 56.8-9.2L56.8-9.2Q57-9.6 57.2-10.23 57.4-10.85 57.57-11.5 57.75-12.15 57.87-12.78 58-13.4 58.05-13.85L58.05-13.85Q58.3-16.1 57.95-17.32 57.6-18.55 56.8-18.55L56.8-18.55Q56.2-18.55 55.55-18.18 54.9-17.8 54.32-17.2 53.75-16.6 53.3-15.88 52.85-15.15 52.65-14.4L52.65-14.4Q52.4-13.55 52.3-13.55L52.3-13.55Q52.15-13.55 52.15-14.4L52.15-14.4Q52.3-15.35 52.8-16.28 53.3-17.2 54.05-17.93 54.8-18.65 55.7-19.13 56.6-19.6 57.55-19.6L57.55-19.6Q58.5-19.6 58.97-18.93 59.45-18.25 59.65-17.28 59.85-16.3 59.82-15.28 59.8-14.25 59.7-13.65L59.7-13.65Q59.5-12.3 59.07-11.03 58.65-9.75 58.05-8.45L58.05-8.45Q57.75-7.85 57.15-6.98 56.55-6.1 55.77-5.3 55-4.5 54.12-3.93 53.25-3.35 52.5-3.35ZM54.1-2.4L54.1-2.4Q54.15-2.1 53.62-1.9 53.1-1.7 52.55-1.7L52.55-1.7Q51-1.75 50.17-2.7 49.35-3.65 49.02-4.95 48.7-6.25 48.72-7.65 48.75-9.05 48.85-10L48.85-10Q49.05-11.65 49.65-13.7 50.25-15.75 51.35-17.55 52.45-19.35 54.05-20.58 55.65-21.8 57.85-21.8L57.85-21.8Q59.3-21.8 60.17-21.05 61.05-20.3 61.47-19.2 61.9-18.1 61.97-16.82 62.05-15.55 61.9-14.5L61.9-14.5Q61.8-13.35 61.55-12.4 61.3-11.45 60.85-10.3L60.85-10.3Q60.7-9.95 60.45-9.5 60.2-9.05 59.9-9.1L59.9-9.1Q59.75-9.15 59.82-9.5 59.9-9.85 60.02-10.38 60.15-10.9 60.3-11.48 60.45-12.05 60.5-12.55L60.5-12.55Q60.6-13.4 60.62-14.68 60.65-15.95 60.42-17.15 60.2-18.35 59.6-19.2 59-20.05 57.8-20.05L57.8-20.05Q56.05-20.05 54.57-18.93 53.1-17.8 52-16.18 50.9-14.55 50.22-12.78 49.55-11 49.4-9.65L49.4-9.65Q49.3-8.85 49.35-7.65 49.4-6.45 49.72-5.28 50.05-4.1 50.8-3.25 51.55-2.4 52.85-2.35L52.85-2.35Q53.25-2.3 53.62-2.43 54-2.55 54.1-2.4ZM71.79-16.65L71.79-16.65Q71.39-14.95 70.67-13.08 69.94-11.2 69.04-9.6L69.04-9.6Q69.04-9.5 68.92-9.28 68.79-9.05 68.59-9.05L68.59-9.05Q68.49-9.05 68.47-9.35 68.44-9.65 68.49-9.75L68.49-9.75Q68.49-10.55 68.69-11.88 68.89-13.2 69.19-14.05L69.19-14.05Q69.29-14.35 69.52-15.5 69.74-16.65 69.92-18.07 70.09-19.5 70.12-20.83 70.14-22.15 69.79-22.8L69.79-22.8 69.79-23Q69.99-23.15 70.24-22.9L70.24-22.9Q70.89-22.35 71.27-21.55 71.64-20.75 71.82-19.88 71.99-19 71.97-18.15 71.94-17.3 71.79-16.65ZM73.74-16.85L73.74-16.85Q74.29-17.55 74.79-17.85 75.29-18.15 75.79-18.35L75.79-18.35Q75.84-18.35 76.04-18.4 76.24-18.45 76.34-18.3L76.34-18.3Q76.44-18.15 76.29-17.95 76.14-17.75 76.04-17.65L76.04-17.65Q75.69-17.3 75.27-16.88 74.84-16.45 74.49-16.05L74.49-16.05Q73.99-15.5 73.69-14.78 73.39-14.05 73.24-13.3L73.24-13.3Q74.09-14.2 74.87-15 75.64-15.8 76.54-16.5L76.54-16.5Q77.69-17.35 78.54-18.7 79.39-20.05 79.74-22.65L79.74-22.65Q79.84-22.9 79.99-22.95 80.14-23 80.14-22.6L80.14-22.6Q80.29-19.7 79.54-18 78.79-16.3 77.29-15.15L77.29-15.15Q76.49-14.55 75.69-13.85 74.89-13.15 74.17-12.3 73.44-11.45 72.84-10.3 72.24-9.15 71.79-7.65L71.79-7.65Q71.44-6.5 71.09-5.48 70.74-4.45 70.34-3.5L70.34-3.5Q70.24-3.15 70.04-3.15L70.04-3.15Q69.89-3.2 69.89-3.65L69.89-3.65Q69.64-6.05 70.22-8.43 70.79-10.8 71.59-13.35L71.59-13.35Q71.94-14.6 72.42-15.85 72.89-17.1 72.84-18.7L72.84-18.7Q72.84-19.25 73.29-19.85 73.74-20.45 74.39-20.98 75.04-21.5 75.74-21.88 76.44-22.25 76.94-22.4L76.94-22.4Q77.39-22.55 77.39-22.35 77.39-22.15 77.09-21.85L77.09-21.85Q76.04-20.9 74.97-19.6 73.89-18.3 73.74-16.85ZM69.39-0.05L69.39-0.05Q69.34 0 69.32-0.03 69.29-0.05 69.04-0.2L69.04-0.2Q67.54-1.3 66.69-2.6 65.84-3.9 65.47-5.28 65.09-6.65 65.14-8.03 65.19-9.4 65.49-10.7L65.49-10.7Q65.89-12.45 66.47-14.18 67.04-15.9 67.54-17.53 68.04-19.15 68.29-20.73 68.54-22.3 68.29-23.75L68.29-23.75Q68.29-23.85 68.44-23.9L68.44-23.9Q68.49-23.9 68.54-23.83 68.59-23.75 68.64-23.7L68.64-23.7Q69.59-22.1 69.59-20.43 69.59-18.75 69.14-17.03 68.69-15.3 68.02-13.53 67.34-11.75 66.94-9.95L66.94-9.95Q66.44-7.65 66.87-5.05 67.29-2.45 69.19-0.4L69.19-0.4Q69.29-0.25 69.39-0.2 69.49-0.15 69.39-0.05ZM70.89 0L70.89 0Q70.79 0 70.69-0.05L70.69-0.05 70.49-0.15Q69.79-0.6 69.24-1.13 68.69-1.65 68.29-2.65L68.29-2.65Q68.14-3 68.04-3.58 67.94-4.15 67.92-4.65 67.89-5.15 67.97-5.5 68.04-5.85 68.24-5.8L68.24-5.8Q68.39-5.8 68.57-5.4 68.74-5 68.84-4.6L68.84-4.6Q68.94-4.05 69.07-3.55 69.19-3.05 69.39-2.65L69.39-2.65Q69.94-1.4 70.84-0.25L70.84-0.25Q70.94 0 70.89 0ZM79.04-22.45L79.04-22.45Q79.04-21.4 78.44-20.6 77.84-19.8 76.99-19.25L76.99-19.25Q76.84-19.15 76.79-19.28 76.74-19.4 76.74-19.45L76.74-19.45Q76.74-19.75 76.99-20.18 77.24-20.6 77.57-21.08 77.89-21.55 78.19-22.05 78.49-22.55 78.59-22.95L78.59-22.95Q78.74-23.2 78.89-22.95 79.04-22.7 79.04-22.45ZM94.34-20.4L94.34-20.4Q94.74-19.9 94.97-19.15 95.19-18.4 95.14-17.53 95.09-16.65 94.74-15.7 94.39-14.75 93.64-13.85L93.64-13.85Q92.19-12.15 90.47-11.23 88.74-10.3 87.34-10.3L87.34-10.3Q86.49-10.3 87.34-10.6L87.34-10.6Q87.79-10.75 88.42-11.08 89.04-11.4 89.74-11.88 90.44-12.35 91.17-13 91.89-13.65 92.49-14.5L92.49-14.5Q93.49-15.9 93.67-17.23 93.84-18.55 93.14-19.25L93.14-19.25Q92.54-19.85 91.74-19.93 90.94-20 89.34-19.05L89.34-19.05Q87.89-18.2 86.74-16.95 85.59-15.7 84.59-14.3L84.59-14.3Q84.04-13.6 83.87-13.6 83.69-13.6 83.99-14.5L83.99-14.5Q84.59-16.25 85.67-17.75 86.74-19.25 88.24-20.3L88.24-20.3Q89.34-21.05 90.27-21.35 91.19-21.65 91.97-21.6 92.74-21.55 93.34-21.23 93.94-20.9 94.34-20.4ZM97.04-16.9L97.04-16.9Q96.84-15.7 96.42-14.88 95.99-14.05 95.47-13.48 94.94-12.9 94.42-12.55 93.89-12.2 93.49-11.9L93.49-11.9Q93.29-11.75 93.19-11.85 93.09-11.95 93.34-12.2L93.34-12.2Q94.24-12.95 95.17-14.23 96.09-15.5 96.14-17.05L96.14-17.05Q96.14-19.7 94.84-21.1L94.84-21.1Q93.54-22.5 91.59-22.33 89.64-22.15 87.54-20.8L87.54-20.8Q86.19-19.95 85.17-18.82 84.14-17.7 83.39-16.43 82.64-15.15 82.17-13.8 81.69-12.45 81.49-11.1L81.49-11.1Q81.29-9.8 81.12-8.3 80.94-6.8 81.12-5.35 81.29-3.9 82.04-2.58 82.79-1.25 84.39-0.3L84.39-0.3Q84.64-0.15 84.92-0.1 85.19-0.05 85.19 0L85.19 0Q85.19 0.1 84.94 0.13 84.69 0.15 84.39 0.05L84.39 0.05Q83.14-0.2 82.27-0.98 81.39-1.75 80.84-2.75 80.29-3.75 79.99-4.85 79.69-5.95 79.64-6.85L79.64-6.85Q79.34-10.8 80.74-14.65L80.74-14.65Q81.04-15.45 81.52-16.45 81.99-17.45 82.69-18.48 83.39-19.5 84.34-20.48 85.29-21.45 86.49-22.2L86.49-22.2Q87.64-22.9 88.89-23.25 90.14-23.6 91.39-23.58 92.64-23.55 93.74-23.13 94.84-22.7 95.69-21.85L95.69-21.85Q96.44-21.05 96.87-19.8 97.29-18.55 97.04-16.9ZM92.49-18.7L92.49-18.7Q93.09-18 92.64-16.53 92.19-15.05 90.54-13.55L90.54-13.55Q89.64-12.7 88.79-12.18 87.94-11.65 86.64-11.25L86.64-11.25Q86.09-9.35 85.94-7.5 85.79-5.65 86.04-4.5L86.04-4.5Q86.09-4.05 86.37-3.63 86.64-3.2 87.17-2.98 87.69-2.75 88.54-2.8 89.39-2.85 90.64-3.35L90.64-3.35Q90.99-3.5 91.07-3.43 91.14-3.35 90.74-3.1L90.74-3.1Q89.84-2.4 88.84-2.13 87.84-1.85 86.97-1.95 86.09-2.05 85.47-2.55 84.84-3.05 84.64-3.9L84.64-3.9Q84.24-5.65 84.29-7.55 84.34-9.45 84.87-11.3 85.39-13.15 86.37-14.78 87.34-16.4 88.79-17.55L88.79-17.55Q91.49-19.7 92.49-18.7ZM91.99-2.75L91.99-2.75Q91.64-2.25 91.12-1.78 90.59-1.3 89.92-0.93 89.24-0.55 88.52-0.3 87.79-0.05 87.04-0.05L87.04-0.05Q85.74-0.05 84.62-0.63 83.49-1.2 82.89-2.95L82.89-2.95Q82.79-3.15 82.79-3.33 82.79-3.5 82.89-3.5L82.89-3.5Q83.09-3.6 83.29-3.38 83.49-3.15 83.69-2.9L83.69-2.9Q84.24-2.25 85.12-1.75 85.99-1.25 86.79-1.25L86.79-1.25Q88.29-1.25 89.39-1.7 90.49-2.15 91.49-2.9L91.49-2.9Q91.74-3.05 92.07-3.2 92.39-3.35 91.99-2.75ZM91.29-17.35L91.29-17.35Q91.09-17.75 89.84-16.7L89.84-16.7Q88.69-15.8 88.02-14.63 87.34-13.45 86.84-12.05L86.84-12.05Q87.79-12.5 88.59-13.08 89.39-13.65 90.09-14.2L90.09-14.2Q90.84-14.85 91.19-15.9 91.54-16.95 91.29-17.35ZM102.39-18.45L102.39-18.45Q102.44-18.9 102.69-19.53 102.94-20.15 103.36-20.73 103.79-21.3 104.39-21.78 104.99-22.25 105.74-22.4L105.74-22.4Q107.34-22.7 108.39-22.2 109.44-21.7 109.99-21.05L109.99-21.05Q110.19-20.75 110.14-20.7L110.14-20.7Q110.04-20.6 109.79-20.75L109.79-20.75Q109.49-20.95 108.81-21.1 108.14-21.25 107.36-21.18 106.59-21.1 105.86-20.7 105.14-20.3 104.69-19.4L104.69-19.4Q104.29-18.55 104.14-17.65 103.99-16.75 103.96-15.98 103.94-15.2 103.99-14.65 104.04-14.1 104.04-13.9L104.04-13.9Q104.14-13.35 104.21-12.53 104.29-11.7 104.29-10.85 104.29-10 104.24-9.18 104.19-8.35 104.04-7.75L104.04-7.75Q103.99-7.6 103.91-7.25 103.84-6.9 103.74-6.9L103.74-6.9Q103.49-6.9 103.49-7.25 103.49-7.6 103.49-7.75L103.49-7.75Q103.39-9 103.14-10.28 102.89-11.55 102.66-12.9 102.44-14.25 102.34-15.63 102.24-17 102.39-18.45ZM100.64-8.55L100.64-8.55Q100.69-9.55 100.46-11.38 100.24-13.2 100.29-15.6L100.29-15.6Q100.34-16.85 100.54-18.18 100.74-19.5 101.49-20.8L101.49-20.8Q102.29-22.2 103.51-22.88 104.74-23.55 105.64-23.5L105.64-23.5Q105.79-23.5 105.94-23.5 106.09-23.5 106.09-23.45L106.09-23.45Q106.09-23.35 106.04-23.38 105.99-23.4 105.69-23.3L105.69-23.3Q104.79-23.05 104.09-22.48 103.39-21.9 102.89-21.15 102.39-20.4 102.09-19.6 101.79-18.8 101.74-18.15L101.74-18.15Q101.44-15.4 101.79-13.35L101.79-13.35Q102.04-11.7 102.19-9.93 102.34-8.15 102.06-6.68 101.79-5.2 101.01-4.23 100.24-3.25 98.64-3.15L98.64-3.15Q98.49-3.15 98.26-3.18 98.04-3.2 98.04-3.3L98.04-3.3Q98.04-3.4 98.49-3.65L98.49-3.65Q99.79-4.25 100.19-5.4 100.59-6.55 100.64-8.55ZM95.34-2.65L95.34-2.65Q96.04-1.55 97.56-1.03 99.09-0.5 101.19-1.1L101.19-1.1Q102.24-1.4 103.04-2.15 103.84-2.9 104.36-3.83 104.89-4.75 105.16-5.75 105.44-6.75 105.49-7.6L105.49-7.6Q105.54-9 105.41-10.35 105.29-11.7 105.11-12.98 104.94-14.25 104.81-15.45 104.69-16.65 104.79-17.8L104.79-17.8Q104.89-19.05 105.49-19.7 106.09-20.35 106.96-20.53 107.84-20.7 108.79-20.4 109.74-20.1 110.54-19.45L110.54-19.45Q110.74-19.35 110.69-19.2L110.69-19.2Q110.69-19.1 110.59-19.15 110.49-19.2 110.39-19.25L110.39-19.25Q108.54-19.85 107.51-19.6 106.49-19.35 106.39-17.8L106.39-17.8Q106.29-16 106.66-13.58 107.04-11.15 106.94-8.2L106.94-8.2Q106.99-7.2 106.71-5.9 106.44-4.6 105.81-3.38 105.19-2.15 104.16-1.2 103.14-0.25 101.74 0L101.74 0Q99.09 0.4 97.51-0.3 95.94-1 95.24-2.45L95.24-2.45Q95.14-2.75 95.14-2.8L95.14-2.8 95.19-2.8Q95.19-2.8 95.34-2.65ZM97.54-2.65L97.54-2.65Q98.49-2.4 99.84-2.45L99.84-2.45Q100.29-2.5 100.94-2.7 101.59-2.9 101.64-2.8L101.64-2.8Q101.79-2.6 101.34-2.3 100.89-2 100.19-1.78 99.49-1.55 98.74-1.48 97.99-1.4 97.49-1.6L97.49-1.6Q96.54-2 96.11-2.48 95.69-2.95 95.34-3.65L95.34-3.65 95.24-3.85Q95.14-4.05 95.19-4.1L95.19-4.1Q95.24-4.15 95.34-4.1L95.34-4.1Q95.39-4.05 95.39-4L95.39-4Q95.99-3.45 96.41-3.18 96.84-2.9 97.54-2.65Z" opacity="1" transform="matrix(1,0,0,1,0,0)" fill="#2d4f8f" class="undefined-tk-1"></path></svg></g></svg></g></svg></g></svg></g></svg></g></svg></g><defs></defs></svg><rect width="288.38705186013084" height="62.74604000000001" fill="none" stroke="none" visibility="hidden"></rect></g></svg></g></svg>